<svg xmlns="http://www.w3.org/2000/svg" width="80" height="80" viewBox="0 0 80 80" fill="none"><g id="parenting 1"><path id="Vector" d="M56.6875 65.625C56.1875 65.625 55.875 65.375 55.6875 64.9375C54.6875 62.4375 53.125 59.25 49.8125 57.5C49.4375 57.3125 49.0625 57.1875 48.6875 57.1875C48.125 57.1875 47.75 57.375 47.3125 57.75C45.8125 59 43.8125 59.75 41.75 59.75C39.6875 59.75 37.6875 59 36.25 57.75C35.875 57.375 35.4375 57.1875 34.9375 57.1875C34.6875 57.1875 34.3125 57.25 33.875 57.4375C31.3125 58.8125 29.5 61.0625 28.5 63.9375V64V64.0625C28.3125 65.0625 27.5 65.5625 26.8125 65.5625C26.1875 65.5625 25.75 65.125 25.625 64.375C26.375 60.6875 28.875 57.25 32.5 55.0625C33.5 54.625 33.5 53.6875 33.375 53C32.25 48.4375 34.4375 44.0625 38.8125 42.375H38.875H38.9375C39.1875 42.25 39.9375 42 39.75 41.1875C39.6875 40.875 39.5625 40.5625 39.375 40.1875L39.25 39.9375C37.6875 36.75 35.25 34.375 32 32.75C31.5625 32.4375 31 32.4375 30.5625 32.4375C30.1875 32.4375 29.6875 32.5 29.1875 32.6875C27.25 33.625 25.4375 34.0625 23.625 34.0625C21.8125 34.0625 19.9375 33.625 18.0625 32.6875C17.625 32.5 17.1875 32.4375 16.75 32.4375C16.125 32.4375 15.5625 32.6875 15.125 33C10.3125 36 7.4375 40.875 6.5625 47.5C6.375 48.25 5.9375 48.6875 5.25 48.6875C4.875 48.6875 4.5 48.5625 4.3125 48.3125C3.9375 47.9375 3.875 47.375 3.875 47C4.5 40.75 7.6875 35.0625 12.625 31.5C13.125 31.1875 13.5 30.6875 13.5625 30.0625C13.625 29.5 13.5 29 13.125 28.4375C10.875 25 10.4375 20.875 11.9375 17.125C13.5625 13.25 17 10.5 21 9.625C21.625 9.4375 22.375 9.375 23.375 9.375C30.0625 9.375 35.6875 15 35.6875 21.6875C35.75 23.9375 35.125 26.0625 33.875 28.1875C33.1875 29.375 33.4375 30.5 34.6875 31.3125C37.1875 32.8125 38.875 34.375 40.0625 36.3125L40.125 36.375C40.5 37.0625 41.125 37.9375 41.875 37.9375C42.625 37.9375 43.4375 37.125 43.6875 36.6875C44.9375 35.1875 46.25 34 47.8125 33.0625C48.375 32.75 48.75 32.3125 48.8125 31.6875C48.875 31.25 48.8125 30.75 48.5625 30.1875C46.5625 27.0625 46.375 23.0625 48.125 19.4375C49.75 16 52.8125 13.625 56.3125 13.1875C56.6875 13.125 57.5 12.9375 58.4375 12.9375C62.4375 12.9375 66.125 15.3125 68.1875 19.125C70.1875 22.875 70 27.0625 67.6875 30.375C67.5 30.5 67.1875 31.125 67.3125 31.75C67.375 32.25 67.6875 32.6875 68.125 33C72 35.8125 74.5 39.875 75.75 45.375C75.75 45.4375 75.75 45.5 75.75 45.5625C75.75 45.625 75.75 45.75 75.75 45.8125V45.875L75.8125 46.0625C75.8125 46.1875 75.875 46.25 75.875 46.375C75.875 46.5 75.9375 46.625 75.9375 46.8125L76 47.1875C76.125 47.625 76 48.0625 75.8125 48.3125L75.75 48.375V48.5C75.375 48.6875 75 48.875 74.5625 48.875C73.9375 48.875 73.5 48.5 73.3125 47.8125C72.875 45.5625 72.4375 43.5625 71.5 41.625C69.875 38.375 67.9375 36.125 65.5625 34.6875C65.25 34.4375 64.75 34.25 64.125 34.25C63.75 34.25 63.375 34.3125 63 34.5625C61.5 35.375 59.75 35.75 58.0625 35.75C56.5625 35.75 55.25 35.4375 53.75 34.75C53.25 34.5 52.5625 34.375 51.875 34.375C48.25 34.375 45.3125 38.375 44.1875 40.75C44.125 41 44 41.1875 44 41.4375C44.0625 42.0625 44.5 42.25 44.75 42.375L44.8125 42.4375H44.875C49.375 44.3125 51.375 48.3125 50.1875 53.1875C49.9375 54.0625 50.25 54.75 51 55.125C54.0625 56.8125 56.3125 59.625 57.9375 63.6875C58.125 64.0625 58.125 64.5 57.875 64.9375C57.4375 65.4375 57.0625 65.625 56.6875 65.625ZM38.3125 45.6875C38.25 45.75 38.125 45.8125 38.0625 45.8125C38 45.875 38 45.875 37.9375 45.9375H37.875L37.8125 46C37.6875 46.125 37.625 46.1875 37.5 46.25H37.4375L37.0625 46.625C36 47.75 35.4375 49.25 35.4375 50.8125C35.4375 54.25 38.1875 57 41.625 57C45.0625 57 47.8125 54.25 47.8125 50.8125C47.8125 47.3125 45.125 44.625 41.75 44.625C40.625 44.625 39.5 44.9375 38.5 45.5625H38.4375L38.375 45.625C38.3125 45.625 38.25 45.6875 38.25 45.6875H38.3125ZM58.25 15.9375C54.3125 15.9375 50.1875 18.4375 49.8125 24C49.8125 29.8125 54.125 32.8125 58.375 32.8125C62.25 32.8125 66.5625 30.1875 66.8125 24.4375C66.8125 22 66 20 64.5 18.4375C62.8125 16.8125 60.625 15.9375 58.25 15.9375ZM23.4375 12.3125C18.9375 12.3125 14.0625 15.25 14 21.625C14.125 28.25 18.9375 31.25 23.375 31.25C26.8125 31.25 29.9375 29.5625 31.5625 26.8125L31.625 26.75V26.6875C31.625 26.6875 31.625 26.625 31.6875 26.625C31.75 26.5 31.75 26.4375 31.75 26.375C32.5 24.9375 32.9375 23.375 33 21.6875C32.9375 15.8125 28.5625 12.75 24.25 12.375L23.4375 12.3125Z" fill="black"></path></g></svg>