<svg xmlns="http://www.w3.org/2000/svg" viewBox="0 0 800 500" width="100%" height="100%">
  <defs>
    <linearGradient id="bg4" x1="0%" y1="0%" x2="100%" y2="100%">
      <stop offset="0%" stop-color="#FFF7ED" stop-opacity="0.8"/>
      <stop offset="50%" stop-color="#FDF2F8" stop-opacity="0.6"/>
      <stop offset="100%" stop-color="#E0F2FE" stop-opacity="0.7"/>
    </linearGradient>
    <linearGradient id="heartBrainGlow" x1="0%" y1="0%" x2="100%" y2="100%">
      <stop offset="0%" stop-color="#FDA4AF"/>
      <stop offset="100%" stop-color="#C4B5FD"/>
    </linearGradient>
    <filter id="softGlow4" x="-20%" y="-20%" width="140%" height="140%">
      <feGaussianBlur stdDeviation="6" result="blur"/>
      <feComposite in="SourceGraphic" in2="blur" operator="over"/>
    </filter>
  </defs>

  <rect width="800" height="500" fill="url(#bg4)"/>

  <!-- Warm Sunbeam window arch in background -->
  <path d="M 180 80 Q 400 30 620 80 L 650 450 L 150 450 Z" fill="#FEF3C7" opacity="0.4"/>
  <circle cx="400" cy="110" r="90" fill="#FDE047" opacity="0.35"/>

  <!-- Small side table with cozy tea & potted plant -->
  <g transform="translate(560, 310)">
    <!-- Table surface -->
    <ellipse cx="0" cy="50" rx="65" ry="18" fill="#FED7AA"/>
    <path d="M -5 68 L -15 150 M 5 68 L 15 150" stroke="#FDBA74" stroke-width="6" stroke-linecap="round"/>

    <!-- Warm Cup of Tea -->
    <rect x="-35" y="15" width="28" height="26" rx="6" fill="#67E8F9"/>
    <path d="M -7 20 Q 2 27 -7 34" stroke="#67E8F9" stroke-width="4" fill="none" stroke-linecap="round"/>
    <!-- Steam rising gently -->
    <path d="M -26 8 Q -30 -5 -24 -15" stroke="#CBD5E1" stroke-width="2" fill="none" stroke-linecap="round" opacity="0.6"/>
    <path d="M -16 5 Q -10 -8 -16 -18" stroke="#CBD5E1" stroke-width="2" fill="none" stroke-linecap="round" opacity="0.6"/>

    <!-- Potted Monstera / Succulent Plant -->
    <path d="M 15 25 L 35 25 L 30 48 L 20 48 Z" fill="#F472B6"/>
    <path d="M 25 25 Q 10 5 18 -12 Q 35 0 25 25 Z" fill="#34D399"/>
    <path d="M 25 25 Q 45 5 40 -15 Q 25 0 25 25 Z" fill="#6EE7B7"/>
    <path d="M 25 25 Q 30 -5 32 -25 Q 22 -15 25 25 Z" fill="#A7F3D0"/>
  </g>

  <!-- Glowing Heart-and-Brain Connection Symbol -->
  <g transform="translate(400, 120)" filter="url(#softGlow4)">
    <circle cx="0" cy="0" r="55" fill="#FFFFFF" opacity="0.75"/>
    <circle cx="0" cy="0" r="45" fill="url(#heartBrainGlow)" opacity="0.4"/>
    
    <!-- Heart shape (left) intertwined with Brain swirls (right) -->
    <path d="M 0 -15 C -20 -35, -45 -10, -25 15 L 0 35 L 25 15 C 45 -10, 20 -35, 0 -15 Z" fill="#F43F5E" opacity="0.75"/>
    <!-- Brain folds inside / harmony -->
    <path d="M 0 -15 C 8 -25, 20 -25, 24 -15 C 28 -8, 22 -2, 25 5 C 28 12, 18 20, 10 25" stroke="#FFFFFF" stroke-width="3" fill="none" stroke-linecap="round"/>
    <!-- Sparkles -->
    <path d="M -45 -25 L -42 -18 L -35 -15 L -42 -12 L -45 -5 L -48 -12 L -55 -15 L -48 -18 Z" fill="#FDE047"/>
    <path d="M 45 -25 L 48 -18 L 55 -15 L 48 -12 L 45 -5 L 42 -12 L 35 -15 L 42 -18 Z" fill="#FDE047"/>
  </g>

  <!-- Friendly Person taking care of wellbeing -->
  <g transform="translate(320, 240)">
    <!-- Floor shadow -->
    <ellipse cx="0" cy="180" rx="90" ry="16" fill="#CBD5E1" opacity="0.4"/>

    <!-- Seated with hands gently placed over heart/chest -->
    <path d="M -80 150 C -75 115, -35 120, 0 130 C 35 120, 75 115, 80 150 C 75 175, -75 175, -80 150 Z" fill="#A7F3D0"/>

    <!-- Sweater in cozy Mint / Lavender -->
    <path d="M -38 30 C -38 10, -25 -10, 0 -10 C 25 -10, 38 10, 38 30 L 45 125 C 20 130, -20 130, -45 125 Z" fill="#BAE6FD"/>

    <!-- Arms folded warmly across chest (self-hug / compassion) -->
    <path d="M -35 25 C -55 50, -40 85, 5 70 C 15 67, 12 55, 0 57 C -20 60, -35 45, -22 30 Z" fill="#93C5FD"/>
    <path d="M 35 25 C 55 50, 40 85, -5 70 C -15 67, -12 55, 0 57 C 20 60, 35 45, 22 30 Z" fill="#93C5FD"/>
    <!-- Hands gently holding shoulders/chest -->
    <circle cx="-2" cy="62" r="8" fill="#FED7AA"/>

    <!-- Head & Content, Warm Expression -->
    <rect x="-9" y="-22" width="18" height="18" rx="5" fill="#FED7AA"/>
    <ellipse cx="0" cy="-52" rx="30" ry="34" fill="#FED7AA"/>
    <!-- Blushing cheeks -->
    <circle cx="-14" cy="-48" r="6" fill="#FB7185" opacity="0.35"/>
    <circle cx="14" cy="-48" r="6" fill="#FB7185" opacity="0.35"/>
    <!-- Gentle happy closed eyes -->
    <path d="M -20 -54 Q -14 -60 -8 -54" stroke="#475569" stroke-width="2.6" fill="none" stroke-linecap="round"/>
    <path d="M 8 -54 Q 14 -60 20 -54" stroke="#475569" stroke-width="2.6" fill="none" stroke-linecap="round"/>
    <!-- Sweet calm smile -->
    <path d="M -8 -38 Q 0 -31 8 -38" stroke="#475569" stroke-width="2.4" fill="none" stroke-linecap="round"/>

    <!-- Modern Bob Haircut in Chestnut -->
    <path d="M -30 -60 C -32 -95, 32 -95, 30 -60 C 35 -30, 25 -10, 20 -15 C 10 -40, -10 -40, -20 -15 C -25 -10, -35 -30, -30 -60 Z" fill="#78350F"/>
  </g>
</svg>